REM DIRINDEX 1\2,1\3
REM DIRNAME folder01,folder02,folder03
TITLE ""
FILE "CD1Track31.mp3" MP3
  TRACK 01 AUDIO
    TITLE "0:"
    INDEX 01 00:00:00
  TRACK 02 AUDIO
    TITLE "3:cjc102_1413"
    INDEX 01 00:00:17
  TRACK 03 AUDIO
    TITLE "0:"
    INDEX 01 00:01:22
  TRACK 04 AUDIO
    TITLE "2:cjc102_1414"
    INDEX 01 00:01:36
  TRACK 05 AUDIO
    TITLE "0:"
    INDEX 01 00:02:53
  TRACK 06 AUDIO
    TITLE "3:cjc102_1415"
    INDEX 01 00:03:14
  TRACK 07 AUDIO
    TITLE "0:"
    INDEX 01 00:03:74
  TRACK 08 AUDIO
    TITLE "2:cjc102_1416"
    INDEX 01 00:04:50
  TRACK 09 AUDIO
    TITLE "0:"
    INDEX 01 00:05:50
  TRACK 10 AUDIO
    TITLE "3:cjc102_1417"
    INDEX 01 00:07:02
  TRACK 11 AUDIO
    TITLE "0:"
    INDEX 01 00:07:74
  TRACK 12 AUDIO
    TITLE "2:cjc102_1418"
    INDEX 01 00:08:21
  TRACK 13 AUDIO
    TITLE "0:"
    INDEX 01 00:09:20
  TRACK 14 AUDIO
    TITLE "3:cjc102_1419"
    INDEX 01 00:10:35
  TRACK 15 AUDIO
    TITLE "0:"
    INDEX 01 00:11:31
  TRACK 16 AUDIO
    TITLE "2:cjc102_1420"
    INDEX 01 00:11:66
  TRACK 17 AUDIO
    TITLE "0:"
    INDEX 01 00:13:08
  TRACK 18 AUDIO
    TITLE "3:cjc102_1421"
    INDEX 01 00:13:61
  TRACK 19 AUDIO
    TITLE "0:"
    INDEX 01 00:14:41
  TRACK 20 AUDIO
    TITLE "2:cjc102_1422"
    INDEX 01 00:15:34
  TRACK 21 AUDIO
    TITLE "0:"
    INDEX 01 00:16:34
  TRACK 22 AUDIO
    TITLE "3:cjc102_1423"
    INDEX 01 00:17:27
  TRACK 23 AUDIO
    TITLE "0:"
    INDEX 01 00:18:23
  TRACK 24 AUDIO
    TITLE "2:cjc102_1424"
    INDEX 01 00:19:16
  TRACK 25 AUDIO
    TITLE "0:"
    INDEX 01 00:20:26
  TRACK 26 AUDIO
    TITLE "3:cjc102_1425"
    INDEX 01 00:21:51
  TRACK 27 AUDIO
    TITLE "0:"
    INDEX 01 00:22:44
  TRACK 28 AUDIO
    TITLE "2:cjc102_1426"
    INDEX 01 00:23:24
  TRACK 29 AUDIO
    TITLE "0:"
    INDEX 01 00:24:41
  TRACK 30 AUDIO
    TITLE "3:cjc102_1427"
    INDEX 01 00:25:17
  TRACK 31 AUDIO
    TITLE "0:"
    INDEX 01 00:26:11
  TRACK 32 AUDIO
    TITLE "2:cjc102_1428"
    INDEX 01 00:27:34
  TRACK 33 AUDIO
    TITLE "0:"
    INDEX 01 00:28:41
  TRACK 34 AUDIO
    TITLE "3:cjc102_1429"
    INDEX 01 00:29:70
  TRACK 35 AUDIO
    TITLE "0:"
    INDEX 01 00:30:63
  TRACK 36 AUDIO
    TITLE "2:cjc102_1430"
    INDEX 01 00:31:33
  TRACK 37 AUDIO
    TITLE "0:"
    INDEX 01 00:32:35
  TRACK 38 AUDIO
    TITLE "3:cjc102_1431"
    INDEX 01 00:33:26
  TRACK 39 AUDIO
    TITLE "0:"
    INDEX 01 00:34:20
  TRACK 40 AUDIO
    TITLE "2:cjc102_1432"
    INDEX 01 00:35:15
  TRACK 41 AUDIO
    TITLE "0:"
    INDEX 01 00:36:13
  TRACK 42 AUDIO
    TITLE "3:cjc102_1433"
    INDEX 01 00:36:62
  TRACK 43 AUDIO
    TITLE "0:"
    INDEX 01 00:38:02
  TRACK 44 AUDIO
    TITLE "2:cjc102_1434"
    INDEX 01 00:38:08
  TRACK 45 AUDIO
    TITLE "0:"
    INDEX 01 00:39:25
  TRACK 46 AUDIO
    TITLE "3:cjc102_1435"
    INDEX 01 00:40:26
  TRACK 47 AUDIO
    TITLE "0:"
    INDEX 01 00:41:38
  TRACK 48 AUDIO
    TITLE "2:cjc102_1436"
    INDEX 01 00:41:67
  TRACK 49 AUDIO
    TITLE "0:"
    INDEX 01 00:43:05
  TRACK 50 AUDIO
    TITLE "3:cjc102_1437"
    INDEX 01 00:43:68
  TRACK 51 AUDIO
    TITLE "0:"
    INDEX 01 00:45:14
  TRACK 52 AUDIO
    TITLE "2:cjc102_1438"
    INDEX 01 00:45:37
  TRACK 53 AUDIO
    TITLE "0:"
    INDEX 01 00:46:47
  TRACK 54 AUDIO
    TITLE "3:cjc102_1439"
    INDEX 01 00:47:13
  TRACK 55 AUDIO
    TITLE "0:"
    INDEX 01 00:48:32
  TRACK 56 AUDIO
    TITLE "2:cjc102_1440"
    INDEX 01 00:48:59
  TRACK 57 AUDIO
    TITLE "0:"
    INDEX 01 00:49:70
  TRACK 58 AUDIO
    TITLE "3:cjc102_1441"
    INDEX 01 00:50:41
  TRACK 59 AUDIO
    TITLE "0:"
    INDEX 01 00:51:46
  TRACK 60 AUDIO
    TITLE "2:cjc102_1442"
    INDEX 01 00:52:34
  TRACK 61 AUDIO
    TITLE "0:"
    INDEX 01 00:53:47
  TRACK 62 AUDIO
    TITLE "3:cjc102_1443"
    INDEX 01 00:54:32
  TRACK 63 AUDIO
    TITLE "0:"
    INDEX 01 00:55:44
  TRACK 64 AUDIO
    TITLE "2:cjc102_1444"
    INDEX 01 00:56:04
  TRACK 65 AUDIO
    TITLE "0:"
    INDEX 01 00:57:05
  TRACK 66 AUDIO
    TITLE "3:cjc102_1445"
    INDEX 01 00:57:45
  TRACK 67 AUDIO
    TITLE "0:"
    INDEX 01 00:58:66
  TRACK 68 AUDIO
    TITLE "2:cjc102_1446"
    INDEX 01 00:59:04
  TRACK 69 AUDIO
    TITLE "0:"
    INDEX 01 01:00:12
  TRACK 70 AUDIO
    TITLE "3:cjc102_1447"
    INDEX 01 01:00:55
  TRACK 71 AUDIO
    TITLE "0:"
    INDEX 01 01:01:70
  TRACK 72 AUDIO
    TITLE "2:cjc102_1448"
    INDEX 01 01:02:01
  TRACK 73 AUDIO
    TITLE "0:"
    INDEX 01 01:03:10
  TRACK 74 AUDIO
    TITLE "3:cjc102_1449"
    INDEX 01 01:03:37
  TRACK 75 AUDIO
    TITLE "0:"
    INDEX 01 01:04:62
  TRACK 76 AUDIO
    TITLE "2:cjc102_1450"
    INDEX 01 01:05:05
  TRACK 77 AUDIO
    TITLE "0:"
    INDEX 01 01:06:08
  TRACK 78 AUDIO
    TITLE "3:cjc102_1451"
    INDEX 01 01:06:53
  TRACK 79 AUDIO
    TITLE "0:"
    INDEX 01 01:07:64
  TRACK 80 AUDIO
    TITLE "2:cjc102_1452"
    INDEX 01 01:08:11
  TRACK 81 AUDIO
    TITLE "0:"
    INDEX 01 01:09:20
  TRACK 82 AUDIO
    TITLE "3:cjc102_1453"
    INDEX 01 01:10:12
  TRACK 83 AUDIO
    TITLE "0:"
    INDEX 01 01:11:39
  TRACK 84 AUDIO
    TITLE "2:cjc102_1454"
    INDEX 01 01:11:41
  TRACK 85 AUDIO
    TITLE "0:"
    INDEX 01 01:12:40
  TRACK 86 AUDIO
    TITLE "3:cjc102_1455"
    INDEX 01 01:13:38
  TRACK 87 AUDIO
    TITLE "0:"
    INDEX 01 01:14:59
  TRACK 88 AUDIO
    TITLE "2:cjc102_1456"
    INDEX 01 01:14:61
  TRACK 89 AUDIO
    TITLE "0:"
    INDEX 01 01:15:70
  TRACK 90 AUDIO
    TITLE "3:cjc102_1457"
    INDEX 01 01:17:08
  TRACK 91 AUDIO
    TITLE "0:"
    INDEX 01 01:18:35
  TRACK 92 AUDIO
    TITLE "2:cjc102_1458"
    INDEX 01 01:18:74
  TRACK 93 AUDIO
    TITLE "0:"
    INDEX 01 01:20:02
  TRACK 94 AUDIO
    TITLE "3:cjc102_1459"
    INDEX 01 01:20:71
  TRACK 95 AUDIO
    TITLE "0:"
    INDEX 01 01:22:17
  TRACK 96 AUDIO
    TITLE "2:cjc102_1460"
    INDEX 01 01:22:21
  TRACK 97 AUDIO
    TITLE "0:"
    INDEX 01 01:23:44
  TRACK 98 AUDIO
    TITLE "3:cjc102_1461"
    INDEX 01 01:24:49
  TRACK 99 AUDIO
    TITLE "0:"
    INDEX 01 01:25:64
  TRACK 100 AUDIO
    TITLE "2:cjc102_1462"
    INDEX 01 01:25:68
  TRACK 101 AUDIO
    TITLE "0:"
    INDEX 01 01:27:03
  TRACK 102 AUDIO
    TITLE "3:cjc102_1463"
    INDEX 01 01:27:73
  TRACK 103 AUDIO
    TITLE "0:"
    INDEX 01 01:29:31
  TRACK 104 AUDIO
    TITLE "2:cjc102_1464"
    INDEX 01 01:29:46
  TRACK 105 AUDIO
    TITLE "0:"
    INDEX 01 01:30:56
  TRACK 106 AUDIO
    TITLE "3:cjc102_1465"
    INDEX 01 01:31:73
  TRACK 107 AUDIO
    TITLE "0:"
    INDEX 01 01:33:29
  TRACK 108 AUDIO
    TITLE "2:cjc102_1466"
    INDEX 01 01:33:38
  TRACK 109 AUDIO
    TITLE "0:"
    INDEX 01 01:34:55
  TRACK 110 AUDIO
    TITLE "3:cjc102_1467"
    INDEX 01 01:34:57
  TRACK 111 AUDIO
    TITLE "0:"
    INDEX 01 01:36:17
  TRACK 112 AUDIO
    TITLE "2:cjc102_1468"
    INDEX 01 01:36:39
  TRACK 113 AUDIO
    TITLE "0:"
    INDEX 01 01:37:50
  TRACK 114 AUDIO
    TITLE "3:cjc102_1469"
    INDEX 01 01:38:18
  TRACK 115 AUDIO
    TITLE "0:"
    INDEX 01 01:39:47
  TRACK 116 AUDIO
    TITLE "2:cjc102_1470"
    INDEX 01 01:40:11
  TRACK 117 AUDIO
    TITLE "0:"
    INDEX 01 01:41:20
  TRACK 118 AUDIO
    TITLE "3:cjc102_1471"
    INDEX 01 01:41:61
  TRACK 119 AUDIO
    TITLE "0:"
    INDEX 01 01:43:05
  TRACK 120 AUDIO
    TITLE "2:cjc102_1472"
    INDEX 01 01:43:27
  TRACK 121 AUDIO
    TITLE "0:"
    INDEX 01 01:44:32
  TRACK 122 AUDIO
    TITLE "3:cjc102_1473"
    INDEX 01 01:44:72
  TRACK 123 AUDIO
    TITLE "0:"
    INDEX 01 01:46:29
  TRACK 124 AUDIO
    TITLE "2:cjc102_1474"
    INDEX 01 01:46:45
  TRACK 125 AUDIO
    TITLE "0:"
    INDEX 01 01:47:62
  TRACK 126 AUDIO
    TITLE "2:cjc102_1475"
    INDEX 01 01:48:63
  TRACK 127 AUDIO
    TITLE "0:"
    INDEX 01 01:50:02
  TRACK 128 AUDIO
    TITLE "3:cjc102_1476"
    INDEX 01 01:50:11
  TRACK 129 AUDIO
    TITLE "0:"
    INDEX 01 01:51:30
  TRACK 130 AUDIO
    TITLE "2:cjc102_1477"
    INDEX 01 01:51:36
  TRACK 131 AUDIO
    TITLE "0:"
    INDEX 01 01:52:44
  TRACK 132 AUDIO
    TITLE "2:cjc102_1478"
    INDEX 01 01:53:18
  TRACK 133 AUDIO
    TITLE "0:"
    INDEX 01 01:54:48
  TRACK 134 AUDIO
    TITLE "3:cjc102_1479"
    INDEX 01 01:55:20
  TRACK 135 AUDIO
    TITLE "0:"
    INDEX 01 01:56:59
  TRACK 136 AUDIO
    TITLE "2:cjc102_1480"
    INDEX 01 01:56:61
  TRACK 137 AUDIO
    TITLE "0:"
    INDEX 01 01:57:68
  TRACK 138 AUDIO
    TITLE "2:cjc102_1481"
    INDEX 01 01:58:36
  TRACK 139 AUDIO
    TITLE "0:"
    INDEX 01 01:59:59
  TRACK 140 AUDIO
    TITLE "3:cjc102_1482"
    INDEX 01 02:00:55
  TRACK 141 AUDIO
    TITLE "0:"
    INDEX 01 02:02:18
  TRACK 142 AUDIO
    TITLE "2:cjc102_1483"
    INDEX 01 02:02:20
  TRACK 143 AUDIO
    TITLE "0:"
    INDEX 01 02:03:28
  TRACK 144 AUDIO
    TITLE "2:cjc102_1484"
    INDEX 01 02:04:00
  TRACK 145 AUDIO
    TITLE "0:"
    INDEX 01 02:05:17
  TRACK 146 AUDIO
    TITLE "3:cjc102_1485"
    INDEX 01 02:05:62
  TRACK 147 AUDIO
    TITLE "0:"
    INDEX 01 02:07:02
  TRACK 148 AUDIO
    TITLE "2:cjc102_1486"
    INDEX 01 02:07:12
  TRACK 149 AUDIO
    TITLE "0:"
    INDEX 01 02:08:11
  TRACK 150 AUDIO
    TITLE "2:cjc102_1487"
    INDEX 01 02:08:72
  TRACK 151 AUDIO
    TITLE "0:"
    INDEX 01 02:10:14
  TRACK 152 AUDIO
    TITLE "3:cjc102_1488"
    INDEX 01 02:10:53
  TRACK 153 AUDIO
    TITLE "0:"
    INDEX 01 02:12:05
  TRACK 154 AUDIO
    TITLE "2:cjc102_1489"
    INDEX 01 02:12:17
  TRACK 155 AUDIO
    TITLE "0:"
    INDEX 01 02:13:20
  TRACK 156 AUDIO
    TITLE "2:cjc102_1490"
    INDEX 01 02:13:69
  TRACK 157 AUDIO
    TITLE "0:"
    INDEX 01 02:15:17
